# xmcd
#
# Track frame offsets:
#	150
#	16375
#	27774
#	39454
#	56294
#	77406
#	91210
#	103949
#	117019
#	130361
#	142408
#	153118
#	169017
#	182849
#	200078
#	215025
#	224035
#	236977
#	251944
#	265151
#
# Disc length: 3675
#
# Revision: 1
# Processed by: cddbd v1.5.1PL0 Copyright (c) Steve Scherf et al.
# Submitted via: EasyCDDAExtractor 4.6.0.1
# Normalized: r0:DSETVAR1
#
DISCID=2a0e5914
DTITLE=Various Artist - Superhits Of Country CD 7
DYEAR=1900
DGENRE=
TTITLE0=Merle Haggard - It's Not Love (Bud It's Not Bad)
TTITLE1=Conway Twitty - Hello Darlin'
TTITLE2=Sammi Smith - Help Me Make It Through The Night
TTITLE3=Lee Greenwood - Ring On Her Finger, Time On Her Hands
TTITLE4=Stella Parton - A Woman's Touch
TTITLE5=The Kendalls - Heartaches By The Number
TTITLE6=Johnny Lee - Bet Your Heart On Me
TTITLE7=Tammy Wynette - Womanhood
TTITLE8=Kenny Rogers - Ruby, Don't Take Your Love On Town
TTITLE9=Skeeter Davis - The End Of The World
TTITLE10=The Everly Brothers - All I Have To Do Is Dream
TTITLE11=Mickey Gilley - Fool For Your Love
TTITLE12=Willie Nelson and Leon Russel - Heartbreak Hotel
TTITLE13=Nancy Peppers - Love Don't Come Easy
TTITLE14=George Jones - Who' Gonna Fill Their Shoes
TTITLE15=Sandy Posey - Born A Woman
TTITLE16=Johnny Tillotson - It Keep's Right On A-Hurtin'
TTITLE17=George Jones - He Stopped Loving Her Today
TTITLE18=Crystal Gayle - Talking In Your Sleep
TTITLE19=Ferlin Husky - Wings Of A Dove
EXTD=
EXTT0=
EXTT1=
EXTT2=
EXTT3=
EXTT4=
EXTT5=
EXTT6=
EXTT7=
EXTT8=
EXTT9=
EXTT10=
EXTT11=
EXTT12=
EXTT13=
EXTT14=
EXTT15=
EXTT16=
EXTT17=
EXTT18=
EXTT19=
PLAYORDER=
